<svg width="56" height="62" viewBox="0 0 56 62" fill="none" xmlns="http://www.w3.org/2000/svg">
<g id="Group 169">
<path id="Vector" d="M38.8333 15.1613L45.3332 21.7419L53.9999 12.9677L43.1666 2H12.8333L2 12.9677L10.6666 21.7419L17.1666 15.1613V30.5161C17.1666 36.4386 10.1466 40.6064 8.75999 54.2063C8.69799 54.8147 8.76233 55.4296 8.9489 56.0113C9.13546 56.5931 9.44012 57.1289 9.84332 57.5844C10.2485 58.0389 10.7431 58.4025 11.2953 58.6518C11.8476 58.9011 12.4453 59.0307 13.05 59.0321H42.9499C43.5546 59.0307 44.1523 58.9011 44.7046 58.6518C45.2568 58.4025 45.7514 58.0389 46.1566 57.5844C46.5598 57.1289 46.8644 56.5931 47.051 56.0113C47.2376 55.4296 47.3019 54.8147 47.2399 54.2063C45.8532 40.6064 38.8333 36.4386 38.8333 30.5161V15.1613Z" stroke="#FF87A6" stroke-opacity="0.5" stroke-width="4" stroke-linecap="round" stroke-linejoin="round"/>
<path id="Vector_2" d="M17.0938 27.1641C20.5468 28.8249 24.2532 29.6802 27.997 29.6802C31.7408 29.6802 35.4471 28.8249 38.9002 27.1641" stroke="#FF87A6" stroke-opacity="0.5" stroke-width="4" stroke-linecap="round" stroke-linejoin="round"/>
</g>
</svg>
