<svg width="32" height="26" viewBox="0 0 32 26" fill="none" xmlns="http://www.w3.org/2000/svg">
<g id="Group">
<path id="Vector" d="M28.6923 1H3.30769C2.03319 1 1 2.03319 1 3.30769V10.2308C1 11.5053 2.03319 12.5385 3.30769 12.5385H28.6923C29.9668 12.5385 31 11.5053 31 10.2308V3.30769C31 2.03319 29.9668 1 28.6923 1Z" stroke="#FF87A6" stroke-opacity="0.5" stroke-linecap="round" stroke-linejoin="round"/>
<path id="Vector_2" d="M28.6932 12.5385V22.9231C28.6932 23.5351 28.4501 24.1221 28.0173 24.5549C27.5845 24.9876 26.9976 25.2308 26.3855 25.2308H5.61629C5.00425 25.2308 4.41728 24.9876 3.9845 24.5549C3.55172 24.1221 3.30859 23.5351 3.30859 22.9231V12.5385M16.0009 1V25.2308" stroke="#FF87A6" stroke-opacity="0.5" stroke-linecap="round" stroke-linejoin="round"/>
</g>
</svg>
