<svg width="74" height="74" viewBox="0 0 74 74" fill="none" xmlns="http://www.w3.org/2000/svg">
<g id="Group">
<path id="Vector" d="M19.4926 23.5415L20.8389 28.9269M38.3414 23.5415L36.9951 28.9269M53.1512 39.6976H9.09882C8.46758 39.7061 7.85422 39.488 7.37006 39.0828C6.88589 38.6777 6.563 38.1125 6.45999 37.4896L2.04398 15.9481C1.97309 15.5607 1.98804 15.1625 2.08778 14.7815C2.18752 14.4005 2.36961 14.046 2.62123 13.7431C2.87285 13.4401 3.18787 13.196 3.54407 13.028C3.90027 12.86 4.28899 12.7722 4.68282 12.7708H58.5366M53.1512 39.6976L58.5366 12.7708M53.1512 39.6976L50.8893 51.0069C50.7652 51.6151 50.4347 52.1618 49.9538 52.5543C49.473 52.9468 48.8712 53.1612 48.2505 53.1611H15.4536M58.5366 12.7708L60.7984 4.15415C60.9226 3.54594 61.253 2.99931 61.7339 2.60677C62.2148 2.21422 62.8165 1.99987 63.4373 2H72" stroke="#FF87A6" stroke-opacity="0.5" stroke-width="3" stroke-linecap="round" stroke-linejoin="round"/>
<path id="Vector_2" d="M18.1458 72.0104C19.6329 72.0104 20.8385 70.8048 20.8385 69.3177C20.8385 67.8306 19.6329 66.625 18.1458 66.625C16.6587 66.625 15.4531 67.8306 15.4531 69.3177C15.4531 70.8048 16.6587 72.0104 18.1458 72.0104Z" stroke="#FF87A6" stroke-opacity="0.5" stroke-width="3" stroke-linecap="round" stroke-linejoin="round"/>
<path id="Vector_3" d="M45.0755 72.0104C46.5626 72.0104 47.7682 70.8048 47.7682 69.3177C47.7682 67.8306 46.5626 66.625 45.0755 66.625C43.5884 66.625 42.3828 67.8306 42.3828 69.3177C42.3828 70.8048 43.5884 72.0104 45.0755 72.0104Z" stroke="#FF87A6" stroke-opacity="0.5" stroke-width="3" stroke-linecap="round" stroke-linejoin="round"/>
</g>
</svg>
