<svg width="51" height="51" viewBox="0 0 51 51" fill="none" xmlns="http://www.w3.org/2000/svg">
<g id="Group">
<path id="Vector" d="M45.3846 11.0352H5.61538C3.61866 11.0352 2 12.6538 2 14.6505V25.4967C2 27.4934 3.61866 29.1121 5.61538 29.1121H45.3846C47.3813 29.1121 49 27.4934 49 25.4967V14.6505C49 12.6538 47.3813 11.0352 45.3846 11.0352Z" stroke="#FF87A6" stroke-opacity="0.5" stroke-width="3" stroke-linecap="round" stroke-linejoin="round"/>
<path id="Vector_2" d="M45.3864 29.1154V45.3846C45.3864 46.3435 45.0055 47.2631 44.3275 47.9411C43.6495 48.6191 42.7299 49 41.771 49H9.23257C8.27371 49 7.35413 48.6191 6.67611 47.9411C5.99809 47.2631 5.61719 46.3435 5.61719 45.3846V29.1154M25.5018 11.0385V49M25.5018 11.0385L36.348 2M25.5018 11.0385L14.6556 2" stroke="#FF87A6" stroke-opacity="0.5" stroke-width="3" stroke-linecap="round" stroke-linejoin="round"/>
</g>
</svg>
