<svg width="32" height="35" viewBox="0 0 32 35" fill="none" xmlns="http://www.w3.org/2000/svg">
<g id="Group 170">
<path id="Vector" d="M22.2266 8.61538L25.9876 12.4231L31.0023 7.34615L24.7339 1H7.18245L0.914062 7.34615L5.92877 12.4231L9.6898 8.61538V17.5C9.6898 20.9269 5.62789 23.3385 4.82553 31.2077C4.78966 31.5597 4.82689 31.9155 4.93484 32.2521C5.04279 32.5887 5.21907 32.8987 5.45237 33.1623C5.68679 33.4253 5.97298 33.6357 6.29254 33.7799C6.61209 33.9242 6.95793 33.9992 7.30781 34H24.6085C24.9584 33.9992 25.3043 33.9242 25.6238 33.7799C25.9434 33.6357 26.2296 33.4253 26.464 33.1623C26.6973 32.8987 26.8736 32.5887 26.9815 32.2521C27.0895 31.9155 27.1267 31.5597 27.0908 31.2077C26.2885 23.3385 22.2266 20.9269 22.2266 17.5V8.61538Z" stroke="#FF87A6" stroke-opacity="0.5" stroke-linecap="round" stroke-linejoin="round"/>
<path id="Vector_2" d="M9.64844 15.5586C11.6464 16.5196 13.791 17.0145 15.9573 17.0145C18.1235 17.0145 20.2681 16.5196 22.2661 15.5586" stroke="#FF87A6" stroke-opacity="0.5" stroke-linecap="round" stroke-linejoin="round"/>
</g>
</svg>
