<svg width="19" height="28" viewBox="0 0 19 28" fill="none" xmlns="http://www.w3.org/2000/svg">
<g id="Group">
<path id="Vector" d="M6.13175 2.2285C6.15003 1.8966 6.29476 1.5843 6.53619 1.35581C6.77761 1.12732 7.09739 0.999995 7.4298 1H11.4702C11.8026 0.999995 12.1224 1.12732 12.3638 1.35581C12.6052 1.5843 12.75 1.8966 12.7682 2.2285L13.2739 11.3285C13.2837 11.505 13.2573 11.6816 13.1965 11.8475C13.1356 12.0135 13.0416 12.1652 12.9201 12.2936C12.7986 12.422 12.6522 12.5242 12.4899 12.5941C12.3275 12.664 12.1526 12.7 11.9759 12.7H6.9241C6.74736 12.7 6.57247 12.664 6.41013 12.5941C6.24779 12.5242 6.1014 12.422 5.97991 12.2936C5.85842 12.1652 5.76438 12.0135 5.70354 11.8475C5.6427 11.6816 5.61633 11.505 5.62605 11.3285L6.13175 2.2285ZM1 16.6C1 15.5657 1.41089 14.5737 2.14228 13.8423C2.87368 13.1109 3.86566 12.7 4.9 12.7H14C15.0343 12.7 16.0263 13.1109 16.7577 13.8423C17.4891 14.5737 17.9 15.5657 17.9 16.6V25.05C17.9 25.5672 17.6946 26.0632 17.3289 26.4289C16.9632 26.7946 16.4672 27 15.95 27H2.95C2.43283 27 1.93684 26.7946 1.57114 26.4289C1.20545 26.0632 1 25.5672 1 25.05V16.6Z" stroke="#FF87A6"/>
<path id="Vector_2" d="M9.45 21.7984C10.527 21.7984 11.4 20.9254 11.4 19.8484C11.4 18.7715 10.527 17.8984 9.45 17.8984C8.37304 17.8984 7.5 18.7715 7.5 19.8484C7.5 20.9254 8.37304 21.7984 9.45 21.7984Z" fill="#FF87A6"/>
</g>
</svg>
