<svg width="53" height="56" viewBox="0 0 53 56" fill="none" xmlns="http://www.w3.org/2000/svg">
<path id="Vector" d="M28.5934 16.7602L23.6257 6.85172C22.5277 4.6618 20.6147 2.99278 18.3074 2.21183C16.0001 1.43087 13.4876 1.60195 11.3225 2.68742C9.15749 3.77289 7.51726 5.68385 6.7627 7.9999C6.00813 10.316 6.20104 12.8474 7.29898 15.0373L12.2667 24.9458M34.7874 8.16338L50.7841 33.2076C51.6706 34.5955 51.1767 36.4357 49.7203 37.1658L15.9785 54.0827C15.6352 54.2553 15.259 54.3529 14.8744 54.3692C14.4897 54.3855 14.1053 54.3201 13.7459 54.1772C13.3866 54.0344 13.0604 53.8173 12.7886 53.5401C12.5168 53.2629 12.3054 52.9317 12.1682 52.5681L1.67247 24.7659C1.43077 24.1254 1.43233 23.4196 1.67686 22.7847C1.92139 22.1497 2.39157 21.6306 2.99674 21.3273L31.2397 7.16736C32.4936 6.53871 34.0253 6.96938 34.7874 8.16338ZM13.0831 24.5365C13.1929 24.7555 13.2121 25.0087 13.1367 25.2403C13.0612 25.4719 12.8972 25.663 12.6807 25.7715C12.4642 25.8801 12.2129 25.8972 11.9822 25.8191C11.7515 25.741 11.5602 25.5741 11.4504 25.3551C11.3406 25.1361 11.3213 24.8829 11.3968 24.6513C11.4722 24.4197 11.6362 24.2286 11.8527 24.1201C12.0693 24.0115 12.3205 23.9944 12.5512 24.0725C12.782 24.1506 12.9733 24.3175 13.0831 24.5365ZM29.4097 16.3509C29.5195 16.5699 29.5388 16.8231 29.4634 17.0547C29.3879 17.2863 29.2239 17.4774 29.0074 17.5859C28.7909 17.6945 28.5396 17.7116 28.3089 17.6335C28.0782 17.5554 27.8869 17.3885 27.7771 17.1695C27.6673 16.9505 27.648 16.6974 27.7234 16.4658C27.7989 16.2342 27.9629 16.0431 28.1794 15.9345C28.3959 15.826 28.6472 15.8089 28.8779 15.887C29.1087 15.965 29.3 16.132 29.4097 16.3509Z" stroke="#FF87A6" stroke-opacity="0.5" stroke-width="3" stroke-linecap="round" stroke-linejoin="round"/>
</svg>
